<svg width="146" height="53" viewBox="0 0 146 53" fill="none" xmlns="http://www.w3.org/2000/svg">
<path d="M51.3031 21.7623C50.9431 21.7623 50.5831 21.7023 50.2231 21.7023C44.8831 21.7023 40.5031 26.0823 40.5031 31.4823V44.0823H38.7031V31.4823C38.7031 25.1223 43.8031 19.9023 50.1631 19.9023H50.2231C50.5831 19.9023 50.9431 19.9023 51.3031 19.9623V21.7623Z" fill="#015190"/>
<path d="M66.3625 22.0628V32.6828C66.3625 38.0828 70.6825 42.4628 76.0825 42.4628H76.1425C76.5025 42.4628 76.8625 42.4628 77.2225 42.4028V44.2028C76.8625 44.2628 76.5025 44.2628 76.1425 44.2628C69.7825 44.2628 64.6225 39.1628 64.5625 32.8028C64.5625 32.7428 64.5625 32.7428 64.5625 32.6828V17.3828H66.3625V20.2628H77.1625V22.0628H66.3625Z" fill="#015190"/>
<path d="M85.1409 25.7216C85.5609 24.9416 86.1009 24.2216 86.7009 23.5616C90.1809 19.3616 96.4209 18.7616 100.621 22.3016C101.101 22.6616 101.521 23.1416 101.881 23.5616C103.981 25.9016 105.121 29.0216 105.121 32.2016V44.0216H103.501V32.2016C103.501 29.5016 102.541 26.9216 100.741 24.8816C97.7409 21.3416 92.4609 20.8616 88.9209 23.8616C88.5609 24.1616 88.2009 24.5216 87.9009 24.8816C86.1609 26.8616 85.1409 29.4416 85.1409 32.1416V44.0216H83.4609V15.1016H85.1409V25.7216Z" fill="#015190"/>
<path d="M145.502 43.9616H143.822V28.7816C143.822 26.8616 143.042 25.0616 141.662 23.7416C138.782 20.9216 134.222 20.9216 131.342 23.7416C129.962 25.0616 129.182 26.8616 129.182 28.7816V43.9616H127.502V28.7816C127.502 26.8616 126.722 25.0616 125.342 23.7416C122.462 20.9216 117.902 20.9216 115.082 23.7416C113.702 25.0616 112.862 26.8616 112.922 28.7816V43.9616H111.242V28.7816C111.242 26.4416 112.202 24.1616 113.942 22.5416C115.622 20.8616 117.902 19.9616 120.242 19.9616C123.722 19.9616 126.962 22.0016 128.402 25.1216C129.122 23.5616 130.262 22.3016 131.642 21.4016C133.082 20.4416 134.822 19.9616 136.562 19.9616C138.962 19.9016 141.242 20.8616 142.922 22.5416C144.662 24.1616 145.562 26.4416 145.562 28.7816V43.9616H145.502Z" fill="#015190"/>
<path d="M15.3252 30.7751C15.3252 31.5862 16.0039 32.2648 16.815 32.2648C17.6592 32.2648 18.3213 31.5862 18.3213 30.7751C18.3213 29.9309 17.6592 29.2688 16.815 29.2688C16.0039 29.2688 15.3252 29.9309 15.3252 30.7751Z" fill="#6AC0E6"/>
<path d="M10.6377 30.7751C10.6377 31.5862 11.3164 32.2648 12.1275 32.2648C12.9717 32.2648 13.6338 31.5862 13.6338 30.7751C13.6338 29.9309 12.9717 29.2688 12.1275 29.2688C11.3164 29.2688 10.6377 29.9309 10.6377 30.7751Z" fill="#0C79BF"/>
<path d="M5.92681 30.7751C5.92681 31.5862 6.60547 32.2648 7.41655 32.2648C8.26074 32.2648 8.92285 31.5862 8.92285 30.7751C8.92285 29.9309 8.26074 29.2688 7.41655 29.2688C6.60547 29.2688 5.92681 29.9309 5.92681 30.7751Z" fill="#015190"/>
<path d="M20.882 23.3813C18.602 21.0413 15.482 19.7213 12.242 19.7813C9.00196 19.7213 5.88196 21.0413 3.60196 23.3813C1.26196 25.6613 -0.0580398 28.7813 0.00196024 32.0213C-0.0580398 35.2613 1.26196 38.3813 3.60196 40.6613C5.88196 43.0013 9.00196 44.3213 12.242 44.2613C15.602 44.2613 24.422 44.1413 24.422 44.1413V31.9613C24.542 28.7213 23.222 25.6013 20.882 23.3813ZM19.682 39.4013C19.382 39.7013 19.142 39.9413 18.842 40.1813L21.002 42.4013L12.422 42.4613H12.182C6.42196 42.4613 1.74196 37.7813 1.74196 32.0213C1.74196 26.2613 6.36196 21.5813 12.182 21.5213C12.242 21.5213 12.242 21.5213 12.302 21.5213C18.062 21.5213 22.742 26.2013 22.742 31.9613C22.742 31.9613 22.742 31.9613 22.742 32.0213C22.802 34.7813 21.662 37.4813 19.682 39.4013Z" fill="#6AC0E6"/>
<path d="M58.3259 22.9629H56.5859V44.0229H58.3259V22.9629Z" fill="#015190"/>
<path d="M58.3259 20.2617H56.5859V21.6417H58.3259V20.2617Z" fill="#015190"/>
<path d="M32.2869 20.2617H30.5469V21.6417H32.2869V20.2617Z" fill="#6AC0E6"/>
<path d="M32.2869 22.9629H30.5469V44.0229H32.2869V22.9629Z" fill="#6AC0E6"/>
</svg>
