<svg width="206" height="18" viewBox="0 0 206 18" fill="none" xmlns="http://www.w3.org/2000/svg">
<path d="M6 4.16016C3.5 4.16016 1.5 6.16016 1.5 8.66016C1.5 11.1602 3.5 13.1602 6 13.1602C8.5 13.1602 10.5 11.1602 10.5 8.66016C10.5 6.16016 8.5 4.16016 6 4.16016Z" fill="white"/>
<path d="M205.5 8.66016L190.5 -9.77516e-05V17.3204L205.5 8.66016ZM1.5 8.66016H3C3 6.98858 4.32843 5.66016 6 5.66016V4.16016V2.66016C2.67157 2.66016 0 5.33173 0 8.66016H1.5ZM6 4.16016V5.66016C7.67157 5.66016 9 6.98858 9 8.66016H10.5H12C12 5.33173 9.32843 2.66016 6 2.66016V4.16016ZM10.5 8.66016H9C9 10.3317 7.67157 11.6602 6 11.6602V13.1602V14.6602C9.32843 14.6602 12 11.9886 12 8.66016H10.5ZM6 13.1602V11.6602C4.32843 11.6602 3 10.3317 3 8.66016H1.5H0C0 11.9886 2.67157 14.6602 6 14.6602V13.1602ZM10.5 8.66016V10.1602H192V8.66016V7.16016H10.5V8.66016Z" fill="#015190"/>
</svg>
