<svg width="18" height="57" viewBox="0 0 18 57" fill="none" xmlns="http://www.w3.org/2000/svg">
<path d="M8.66016 1.5C6.16016 1.5 4.16016 3.5 4.16016 6C4.16016 8.5 6.16016 10.5 8.66016 10.5C11.1602 10.5 13.1602 8.5 13.1602 6C13.1602 3.5 11.1602 1.5 8.66016 1.5Z" fill="white"/>
<path d="M8.66016 57L17.3204 42H-9.77516e-05L8.66016 57ZM4.16016 6H5.66016C5.66016 4.32843 6.98858 3 8.66016 3V1.5V0C5.33173 0 2.66016 2.67157 2.66016 6H4.16016ZM8.66016 1.5V3C10.3317 3 11.6602 4.32843 11.6602 6H13.1602H14.6602C14.6602 2.67157 11.9886 0 8.66016 0V1.5ZM13.1602 6H11.6602C11.6602 7.67157 10.3317 9 8.66016 9V10.5V12C11.9886 12 14.6602 9.32843 14.6602 6H13.1602ZM8.66016 10.5V9C6.98858 9 5.66016 7.67157 5.66016 6H4.16016H2.66016C2.66016 9.32843 5.33173 12 8.66016 12V10.5ZM8.66016 10.5H7.16016V43.5H8.66016H10.1602V10.5H8.66016Z" fill="#015190"/>
</svg>
