<svg width="24" height="24" viewBox="0 0 24 24" fill="none" xmlns="http://www.w3.org/2000/svg">
<path d="M11.9998 18.0001V5.00013M11.9998 18.0001C12.0004 18.5469 12.1131 19.0877 12.3309 19.5892C12.5487 20.0907 12.8669 20.5422 13.2661 20.9159C13.6652 21.2896 14.1367 21.5774 14.6514 21.7617C15.1662 21.946 15.7132 22.0229 16.2588 21.9875C16.8044 21.9521 17.337 21.8052 17.8236 21.5559C18.3102 21.3066 18.7406 20.9602 19.088 20.5381C19.4355 20.116 19.6928 19.6271 19.8439 19.1017C19.9951 18.5762 20.0369 18.0254 19.9668 17.4831M11.9998 18.0001C11.9992 18.5469 11.8866 19.0877 11.6688 19.5892C11.451 20.0907 11.1327 20.5422 10.7336 20.9159C10.3345 21.2896 9.86296 21.5774 9.34821 21.7617C8.83347 21.946 8.2864 22.0229 7.7408 21.9875C7.1952 21.9521 6.66265 21.8052 6.17604 21.5559C5.68944 21.3066 5.2591 20.9602 4.91161 20.5381C4.56412 20.116 4.30686 19.6271 4.15571 19.1017C4.00457 18.5762 3.96274 18.0254 4.03283 17.4831M11.9998 5.00013C11.9998 4.53996 12.1056 4.08595 12.3092 3.67322C12.5127 3.2605 12.8084 2.90012 13.1735 2.61998C13.5386 2.33983 13.9632 2.14743 14.4145 2.05765C14.8659 1.96787 15.3318 1.98312 15.7763 2.10223C16.2208 2.22133 16.6319 2.44109 16.9779 2.74451C17.3239 3.04793 17.5954 3.42687 17.7715 3.85203C17.9476 4.27718 18.0235 4.73714 17.9934 5.19633C17.9633 5.65551 17.8279 6.10162 17.5978 6.50013M11.9998 5.00013C11.9998 4.53996 11.894 4.08595 11.6905 3.67322C11.487 3.2605 11.1912 2.90012 10.8262 2.61998C10.4611 2.33983 10.0365 2.14743 9.58512 2.05765C9.13379 1.96787 8.66785 1.98312 8.22336 2.10223C7.77886 2.22133 7.36773 2.44109 7.02175 2.74451C6.67578 3.04793 6.40425 3.42687 6.22816 3.85203C6.05207 4.27718 5.97614 4.73714 6.00626 5.19633C6.03637 5.65551 6.17172 6.10162 6.40183 6.50013M14.9998 13.0001C14.1346 12.7472 13.3747 12.2208 12.8338 11.4996C12.293 10.7785 12.0004 9.90154 11.9998 9.00013C11.9993 9.90154 11.7067 10.7785 11.1658 11.4996C10.625 12.2208 9.86503 12.7472 8.99983 13.0001M17.9968 5.12513C18.5846 5.27627 19.1303 5.55918 19.5926 5.95244C20.0549 6.34571 20.4216 6.83901 20.665 7.39498C20.9084 7.95096 21.0221 8.55503 20.9974 9.16145C20.9728 9.76786 20.8105 10.3607 20.5228 10.8951M17.9998 18.0001C18.8803 18.0001 19.7362 17.7095 20.4348 17.1735C21.1333 16.6375 21.6355 15.8859 21.8633 15.0354C22.0912 14.1849 22.0321 13.283 21.6952 12.4695C21.3583 11.656 20.7623 10.9764 19.9998 10.5361M5.99983 18.0001C5.11932 18.0001 4.26343 17.7095 3.56489 17.1735C2.86635 16.6375 2.3642 15.8859 2.1363 15.0354C1.90841 14.1849 1.96751 13.283 2.30444 12.4695C2.64137 11.656 3.23731 10.9764 3.99983 10.5361M6.00283 5.12513C5.41503 5.27627 4.86933 5.55918 4.40706 5.95244C3.94479 6.34571 3.57806 6.83901 3.33467 7.39498C3.09127 7.95096 2.97759 8.55503 3.00221 9.16145C3.02684 9.76786 3.18914 10.3607 3.47683 10.8951" stroke="#015190" stroke-width="2" stroke-linecap="round" stroke-linejoin="round"/>
</svg>
