<svg width="146" height="53" viewBox="0 0 146 53" fill="none" xmlns="http://www.w3.org/2000/svg">
<path d="M51.3031 21.7621C50.9431 21.7621 50.5831 21.7021 50.2231 21.7021C44.8831 21.7021 40.5031 26.0821 40.5031 31.4821V44.0821H38.7031V31.4821C38.7031 25.1221 43.8031 19.9021 50.1631 19.9021H50.2231C50.5831 19.9021 50.9431 19.9021 51.3031 19.9621V21.7621Z" fill="white"/>
<path d="M66.3625 22.062V32.682C66.3625 38.082 70.6825 42.462 76.0825 42.462H76.1425C76.5025 42.462 76.8625 42.462 77.2225 42.402V44.202C76.8625 44.262 76.5025 44.262 76.1425 44.262C69.7825 44.262 64.6225 39.162 64.5625 32.802C64.5625 32.742 64.5625 32.742 64.5625 32.682V17.382H66.3625V20.262H77.1625V22.062H66.3625Z" fill="white"/>
<path d="M85.1409 25.7221C85.5609 24.9421 86.1009 24.222 86.7009 23.562C90.1809 19.3621 96.4209 18.7621 100.621 22.3021C101.101 22.6621 101.521 23.142 101.881 23.562C103.981 25.9021 105.121 29.022 105.121 32.202V44.022H103.501V32.202C103.501 29.5021 102.541 26.922 100.741 24.882C97.7409 21.3421 92.4609 20.8621 88.9209 23.8621C88.5609 24.1621 88.2009 24.522 87.9009 24.882C86.1609 26.8621 85.1409 29.442 85.1409 32.142V44.022H83.4609V15.1021H85.1409V25.7221Z" fill="white"/>
<path d="M145.502 43.962H143.822V28.782C143.822 26.862 143.042 25.062 141.662 23.742C138.782 20.922 134.222 20.922 131.342 23.742C129.962 25.062 129.182 26.862 129.182 28.782V43.962H127.502V28.782C127.502 26.862 126.722 25.062 125.342 23.742C122.462 20.922 117.902 20.922 115.082 23.742C113.702 25.062 112.862 26.862 112.922 28.782V43.962H111.242V28.782C111.242 26.442 112.202 24.162 113.942 22.542C115.622 20.862 117.902 19.962 120.242 19.962C123.722 19.962 126.962 22.002 128.402 25.122C129.122 23.562 130.262 22.302 131.642 21.402C133.082 20.442 134.822 19.962 136.562 19.962C138.962 19.902 141.242 20.862 142.922 22.542C144.662 24.162 145.562 26.442 145.562 28.782V43.962H145.502Z" fill="white"/>
<path d="M15.3252 30.7751C15.3252 31.5862 16.0039 32.2648 16.815 32.2648C17.6592 32.2648 18.3213 31.5862 18.3213 30.7751C18.3213 29.9309 17.6592 29.2688 16.815 29.2688C16.0039 29.2688 15.3252 29.9309 15.3252 30.7751Z" fill="white"/>
<path d="M10.6377 30.7751C10.6377 31.5862 11.3164 32.2648 12.1275 32.2648C12.9717 32.2648 13.6338 31.5862 13.6338 30.7751C13.6338 29.9309 12.9717 29.2688 12.1275 29.2688C11.3164 29.2688 10.6377 29.9309 10.6377 30.7751Z" fill="white"/>
<path d="M5.92681 30.7751C5.92681 31.5862 6.60547 32.2648 7.41655 32.2648C8.26074 32.2648 8.92285 31.5862 8.92285 30.7751C8.92285 29.9309 8.26074 29.2688 7.41655 29.2688C6.60547 29.2688 5.92681 29.9309 5.92681 30.7751Z" fill="white"/>
<path d="M20.882 23.382C18.602 21.042 15.482 19.722 12.242 19.782C9.00196 19.722 5.88196 21.042 3.60196 23.382C1.26196 25.662 -0.0580398 28.782 0.00196024 32.022C-0.0580398 35.262 1.26196 38.382 3.60196 40.662C5.88196 43.002 9.00196 44.322 12.242 44.262C15.602 44.262 24.422 44.142 24.422 44.142V31.962C24.542 28.722 23.222 25.602 20.882 23.382ZM19.682 39.402C19.382 39.702 19.142 39.942 18.842 40.182L21.002 42.402L12.422 42.462H12.182C6.42196 42.462 1.74196 37.782 1.74196 32.022C1.74196 26.262 6.36196 21.582 12.182 21.522C12.242 21.522 12.242 21.522 12.302 21.522C18.062 21.522 22.742 26.202 22.742 31.962C22.742 31.962 22.742 31.962 22.742 32.022C22.802 34.782 21.662 37.482 19.682 39.402Z" fill="white"/>
<path d="M58.3259 22.962H56.5859V44.022H58.3259V22.962Z" fill="white"/>
<path d="M58.3259 20.262H56.5859V21.642H58.3259V20.262Z" fill="white"/>
<path d="M32.2869 20.262H30.5469V21.642H32.2869V20.262Z" fill="white"/>
<path d="M32.2869 22.962H30.5469V44.022H32.2869V22.962Z" fill="white"/>
</svg>
