<svg width="29" height="21" viewBox="0 0 29 21" fill="none" xmlns="http://www.w3.org/2000/svg">
<path d="M6.33333 19.6667V15.6667M11.6667 19.6667V15.6667M17 19.6667V15.6667M22.3333 19.6667V15.6667M9 9V6.33333M19.6667 9V6.33333M14.3333 9V6.33333M1 14.3333H27.6667M1 3.66667C1 2.95942 1.28095 2.28115 1.78105 1.78105C2.28115 1.28095 2.95942 1 3.66667 1H25C25.7072 1 26.3855 1.28095 26.8856 1.78105C27.3857 2.28115 27.6667 2.95942 27.6667 3.66667V5.13333C27.1144 5.29602 26.6295 5.6331 26.2847 6.09418C25.9398 6.55526 25.7535 7.11556 25.7535 7.69133C25.7535 8.2671 25.9398 8.82741 26.2847 9.28849C26.6295 9.74956 27.1144 10.0866 27.6667 10.2493V17C27.6667 17.7072 27.3857 18.3855 26.8856 18.8856C26.3855 19.3857 25.7072 19.6667 25 19.6667H3.66667C2.95942 19.6667 2.28115 19.3857 1.78105 18.8856C1.28095 18.3855 1 17.7072 1 17V10.2C1.55231 10.0373 2.03713 9.70023 2.38197 9.23915C2.72682 8.77808 2.91318 8.21777 2.91318 7.642C2.91318 7.06623 2.72682 6.50592 2.38197 6.04485C2.03713 5.58377 1.55231 5.24669 1 5.084V3.66667Z" stroke="#015190" stroke-width="2" stroke-linecap="round" stroke-linejoin="round"/>
</svg>
