<svg width="32" height="32" viewBox="0 0 32 32" fill="none" xmlns="http://www.w3.org/2000/svg">
<path d="M11.4533 18.0146L20.56 23.3213M20.5467 8.6813L11.4533 13.988M28 6.66797C28 8.87711 26.2091 10.668 24 10.668C21.7909 10.668 20 8.87711 20 6.66797C20 4.45883 21.7909 2.66797 24 2.66797C26.2091 2.66797 28 4.45883 28 6.66797ZM12 16.0013C12 18.2104 10.2091 20.0013 8 20.0013C5.79086 20.0013 4 18.2104 4 16.0013C4 13.7922 5.79086 12.0013 8 12.0013C10.2091 12.0013 12 13.7922 12 16.0013ZM28 25.3346C28 27.5438 26.2091 29.3346 24 29.3346C21.7909 29.3346 20 27.5438 20 25.3346C20 23.1255 21.7909 21.3346 24 21.3346C26.2091 21.3346 28 23.1255 28 25.3346Z" stroke="#6AC0E6" stroke-width="2" stroke-linecap="round" stroke-linejoin="round"/>
</svg>
