<svg width="58" height="52" viewBox="0 0 58 52" fill="none" xmlns="http://www.w3.org/2000/svg">
<path d="M28.6667 12.6667V50M28.6667 12.6667C28.6667 9.83769 27.5429 7.12458 25.5425 5.12419C23.5421 3.12381 20.829 2 18 2H4.66667C3.95942 2 3.28115 2.28095 2.78105 2.78105C2.28095 3.28115 2 3.95942 2 4.66667V39.3333C2 40.0406 2.28095 40.7189 2.78105 41.219C3.28115 41.7191 3.95942 42 4.66667 42H20.6667C22.7884 42 24.8232 42.8429 26.3235 44.3431C27.8238 45.8434 28.6667 47.8783 28.6667 50M28.6667 12.6667C28.6667 9.83769 29.7905 7.12458 31.7909 5.12419C33.7912 3.12381 36.5044 2 39.3333 2H52.6667C53.3739 2 54.0522 2.28095 54.5523 2.78105C55.0524 3.28115 55.3333 3.95942 55.3333 4.66667V39.3333C55.3333 40.0406 55.0524 40.7189 54.5523 41.219C54.0522 41.7191 53.3739 42 52.6667 42H36.6667C34.5449 42 32.5101 42.8429 31.0098 44.3431C29.5095 45.8434 28.6667 47.8783 28.6667 50M39.3333 26H44.6667M39.3333 15.3333H44.6667M12.6667 26H18M12.6667 15.3333H18" stroke="#015190" stroke-width="4" stroke-linecap="round" stroke-linejoin="round"/>
</svg>
