<svg width="58" height="52" viewBox="0 0 58 52" fill="none" xmlns="http://www.w3.org/2000/svg">
<path d="M28.6667 50V12.6667M28.6667 50C28.6667 47.8783 27.8238 45.8434 26.3235 44.3431C24.8232 42.8429 22.7884 42 20.6667 42H4.66667C3.95942 42 3.28115 41.7191 2.78105 41.219C2.28095 40.7189 2 40.0406 2 39.3333V4.66667C2 3.95942 2.28095 3.28115 2.78105 2.78105C3.28115 2.28095 3.95942 2 4.66667 2H18C20.829 2 23.5421 3.12381 25.5425 5.12419C27.5429 7.12458 28.6667 9.83769 28.6667 12.6667M28.6667 50C28.6667 47.8783 29.5095 45.8434 31.0098 44.3431C32.5101 42.8429 34.5449 42 36.6667 42H52.6667C53.3739 42 54.0522 41.7191 54.5523 41.219C55.0524 40.7189 55.3333 40.0406 55.3333 39.3333V35.8667M28.6667 12.6667C28.6667 9.83769 29.7905 7.12458 31.7909 5.12419C33.7912 3.12381 36.5044 2 39.3333 2H52.6667C53.3739 2 54.0522 2.28095 54.5523 2.78105C55.0524 3.28115 55.3333 3.95942 55.3333 4.66667V10M39.3333 26L44.6667 31.3333L55.3333 20.6667" stroke="#015190" stroke-width="4" stroke-linecap="round" stroke-linejoin="round"/>
</svg>
