<svg width="52" height="52" viewBox="0 0 52 52" fill="none" xmlns="http://www.w3.org/2000/svg">
<path d="M2 2V44.6667C2 46.0812 2.5619 47.4377 3.5621 48.4379C4.56229 49.4381 5.91885 50 7.33333 50H50M12.6667 23.8853C12.6667 23.5324 12.8067 23.1939 13.056 22.944L18.3893 17.6107C18.5132 17.4865 18.6603 17.388 18.8223 17.3208C18.9843 17.2536 19.158 17.219 19.3333 17.219C19.5087 17.219 19.6824 17.2536 19.8444 17.3208C20.0063 17.388 20.1535 17.4865 20.2773 17.6107L29.056 26.3893C29.1799 26.5135 29.327 26.612 29.489 26.6792C29.651 26.7465 29.8246 26.781 30 26.781C30.1754 26.781 30.349 26.7465 30.511 26.6792C30.673 26.612 30.8201 26.5135 30.944 26.3893L42.3893 14.944C42.5757 14.7572 42.8132 14.6299 43.0719 14.5782C43.3306 14.5264 43.5988 14.5526 43.8427 14.6534C44.0865 14.7542 44.2949 14.925 44.4416 15.1443C44.5883 15.3636 44.6666 15.6215 44.6667 15.8853V36.6667C44.6667 37.3739 44.3857 38.0522 43.8856 38.5523C43.3855 39.0524 42.7072 39.3333 42 39.3333H15.3333C14.6261 39.3333 13.9478 39.0524 13.4477 38.5523C12.9476 38.0522 12.6667 37.3739 12.6667 36.6667V23.8853Z" stroke="#015190" stroke-width="4" stroke-linecap="round" stroke-linejoin="round"/>
</svg>
